<svg width="22" height="19" viewBox="0 0 22 19" fill="none" xmlns="http://www.w3.org/2000/svg">
<path d="M21 6.98H16.21L11.83 0.42C11.64 0.14 11.32 0 11 0C10.68 0 10.36 0.14 10.17 0.43L5.79 6.98H1C0.45 6.98 0 7.43 0 7.98C0 8.07 0.00999996 8.16 0.04 8.25L2.58 17.52C2.81 18.36 3.58 18.98 4.5 18.98H17.5C18.42 18.98 19.19 18.36 19.43 17.52L21.97 8.25L22 7.98C22 7.43 21.55 6.98 21 6.98ZM11 2.78L13.8 6.98H8.2L11 2.78ZM17.5 16.98L4.51 16.99L2.31 8.98H19.7L17.5 16.98ZM11 10.98C9.9 10.98 9 11.88 9 12.98C9 14.08 9.9 14.98 11 14.98C12.1 14.98 13 14.08 13 12.98C13 11.88 12.1 10.98 11 10.98Z" fill="black"/>
</svg>
